<?xml version="1.0" standalone="no"?>
<!DOCTYPE svg PUBLIC "-//W3C//DTD SVG 20010904//EN"
 "http://www.w3.org/TR/2001/REC-SVG-20010904/DTD/svg10.dtd">
<svg version="1.0" xmlns="http://www.w3.org/2000/svg"
 width="13.000000pt" height="13.000000pt" viewBox="0 0 13.000000 13.000000"
 preserveAspectRatio="xMidYMid meet">
<metadata>
Created by potrace 1.16, written by Peter Selinger 2001-2019
</metadata>
<g transform="translate(0.000000,13.000000) scale(0.002519,-0.002519)"
fill="#000000" stroke="none">
<path d="M2285 5083 c-94 -13 -263 -49 -365 -78 -132 -38 -277 -92 -285 -106
-4 -5 -13 -9 -22 -9 -39 0 -302 -143 -436 -237 -144 -100 -219 -163 -358 -302
-152 -152 -213 -226 -328 -398 -232 -346 -378 -760 -412 -1169 -13 -161 -7
-505 10 -584 7 -30 22 -98 33 -150 26 -122 94 -326 153 -460 48 -109 156 -306
184 -337 9 -10 22 -30 28 -45 7 -16 17 -28 22 -28 5 0 11 -8 13 -17 18 -64
284 -358 452 -499 101 -84 278 -208 369 -258 26 -14 58 -32 70 -40 47 -31 278
-129 390 -167 266 -89 445 -119 762 -126 194 -4 261 -2 350 11 235 35 487 112
707 214 104 49 334 182 353 205 6 7 22 18 37 26 14 7 40 26 58 42 17 16 34 29
37 29 3 0 42 31 87 69 111 94 272 263 354 371 114 150 128 172 193 280 184
310 309 692 339 1040 15 171 12 449 -5 564 -29 191 -124 522 -170 592 -8 13
-15 29 -15 36 0 19 -111 238 -121 238 -5 0 -9 7 -9 16 0 16 -58 106 -72 112
-4 2 -8 10 -8 18 0 8 -8 22 -17 32 -10 10 -24 29 -32 44 -55 106 -368 432
-535 557 -390 293 -843 472 -1296 511 -110 9 -452 11 -515 3z m-349 -1463 c28
-14 142 -122 344 -327 l302 -305 307 305 c168 168 322 313 341 323 28 15 57
19 145 19 103 0 113 -2 158 -28 26 -15 60 -47 75 -69 25 -38 27 -51 30 -155 3
-99 1 -119 -18 -157 -14 -30 -115 -137 -327 -346 l-305 -302 305 -307 c168
-168 313 -322 323 -341 15 -28 19 -58 19 -145 0 -103 -2 -113 -28 -158 -15
-26 -47 -60 -69 -75 -38 -25 -51 -27 -155 -30 -100 -3 -118 -1 -158 18 -31 15
-134 113 -345 327 l-302 306 -306 -305 c-169 -168 -323 -314 -342 -324 -28
-15 -58 -19 -145 -19 -103 0 -113 2 -158 28 -26 15 -60 47 -75 69 -25 38 -27
51 -30 155 -3 99 -1 118 18 157 15 31 113 135 327 346 l306 302 -306 306
c-167 169 -313 323 -323 342 -22 43 -31 188 -15 246 16 59 62 118 112 142 62
31 233 32 295 2z"/>
</g>
</svg>
